<svg xmlns="http://www.w3.org/2000/svg" version="1.1" xmlns:xlink="http://www.w3.org/1999/xlink" width="96" height="96" id="svg4" sodipodi:docname="GTK_logo.svg" xml:space="preserve" inkscape:version="1.4.4 (dcaf3e7d9e, 2026-05-05)" xmlns:inkscape="http://www.inkscape.org/namespaces/inkscape" xmlns:sodipodi="http://sodipodi.sourceforge.net/DTD/sodipodi-0.dtd" xmlns:svg="http://www.w3.org/2000/svg"><defs id="defs4"><linearGradient xlink:href="#a" id="b" gradientUnits="userSpaceOnUse" gradientTransform="matrix(0,0.75176175,-0.98462,0,295.385,-225.52852)" x1="300" y1="235" x2="428" y2="235"></linearGradient><linearGradient id="a"><stop offset="0" stop-color="#f9f06b" id="stop3"></stop><stop offset="1" stop-color="#f5c211" id="stop5"></stop></linearGradient></defs><sodipodi:namedview id="namedview4" pagecolor="#505050" bordercolor="#eeeeee" borderopacity="1" inkscape:showpageshadow="0" inkscape:pageopacity="0" inkscape:pagecheckerboard="0" inkscape:deskcolor="#505050" inkscape:zoom="4.1468696" inkscape:cx="55.825242" inkscape:cy="47.023422" inkscape:window-width="1920" inkscape:window-height="1011" inkscape:window-x="0" inkscape:window-y="0" inkscape:window-maximized="1" inkscape:current-layer="svg4"></sodipodi:namedview><path stroke-width="1.25" d="m 50.6,51.3 -47.3,14 z m 0,0 33,23 z m 0,0 v -50" id="path4" style="stroke:#ffffff"></path><path d="M 128,0 V 96.225505 H 0 V 0 Z" id="path10" fill="url(#b)" style="fill:url(#b);stroke-width:1.42541"></path><path id="path12" d="m 13.306641,0 47.359375,47.359375 h 0.002 21.210937 L 34.519531,0 Z m 47.361328,47.359375 29.11914,29.119141 v 0.002 l 0.720703,0.71875 17.519528,17.521484 47.35938,47.35938 h 21.21289 L 129.24219,94.720703 90.507812,55.988281 89.787109,55.265625 81.880859,47.361328 Z M 55.732422,0 l 47.361328,47.359375 47.35937,47.361328 47.36133,47.359377 h 21.21289 L 171.66797,94.720703 h -0.002 L 124.30664,47.359375 76.947266,0 Z M 98.160156,0 128,29.839844 V 8.6289062 L 119.37305,0.00195313 Z M 0,7.90625 v 21.214844 l 18.240234,18.238281 47.361328,47.361328 29.119141,29.119137 v 0.002 l 0.720703,0.71875 17.519534,17.51953 h 21.21484 L 95.441406,103.34766 86.814453,94.720703 39.455078,47.359375 Z M -24.185547,47.359375 23.173828,94.720703 70.535156,142.08008 H 91.748047 L 44.388672,94.720703 h -0.002 L -2.9726562,47.359375 Z m 169.705077,0 47.36133,47.361328 29.83984,29.839847 v -21.21289 l -8.62695,-8.626957 -47.35937,-47.361328 z m 42.42774,0 29.83984,29.839844 V 55.988281 l -8.62695,-8.626953 z m -225.439458,7.90625 v 21.214844 l 18.240235,18.240234 47.359375,47.359377 h 21.21289 L 1.9628906,94.720703 Z m 4.933594,47.361325 v 21.21485 l 18.240235,18.23828 H 6.8964844 Z" style="fill:#000000;fill-opacity:1"></path></svg>